<?xml version="1.0" encoding="iso-8859-1"?>
<!-- Generator: Adobe Illustrator 19.0.0, SVG Export Plug-In . SVG Version: 6.00 Build 0)  -->
<svg version="1.1" id="Layer_1" xmlns="http://www.w3.org/2000/svg" xmlns:xlink="http://www.w3.org/1999/xlink" x="0px" y="0px"
	 viewBox="0 0 512 512" style="enable-background:new 0 0 512 512;" xml:space="preserve">
<g>
	<path style="fill:#FFDA44;" d="M481.145,208.993C473.103,92.228,375.851,0,257.045,0C139.198,0,42.556,90.743,33.153,206.167
		C12.808,230.415,0.525,261.65,0.525,295.708c0,11.065,1.306,22.099,3.887,32.81l2.759,11.4l9.477-6.907
		c10.844-7.895,23.427-12.52,36.686-13.556c27.51,59.013,79.896,104.084,143.685,121.73c4.561,10.054,11.592,18.762,20.322,25.332
		v29.811h-11.494V512h27.167v-36.791c7.304,2.832,15.224,4.399,23.51,4.399c8.286,0,16.206-1.567,23.51-4.399V512h26.122v-15.673
		h-10.449v-29.811c8.635-6.5,15.61-15.092,20.174-25.01c64.258-17.393,117.083-62.575,144.787-121.86
		c12.528,1.329,24.395,5.866,34.686,13.365l9.477,6.907l2.759-11.4c2.581-10.71,3.887-21.744,3.887-32.81
		C511.475,262.96,500.115,232.818,481.145,208.993z"/>
	<circle style="fill:#FFDA44;" cx="257.043" cy="224.651" r="224.651"/>
</g>
<g>
	<path style="fill:#57565C;" d="M298.767,257.976c2.267-2.905,4.305-5.966,6.081-9.143l-22.726-22.59v21.41
		C288.203,250.254,293.794,253.756,298.767,257.976z"/>
	<path style="fill:#57565C;" d="M230.923,247.653v-21.232l-23.238,23.395c1.766,3.03,3.751,5.935,5.966,8.704
		C218.771,254.058,224.591,250.36,230.923,247.653z"/>
	<path style="fill:#57565C;" d="M17.546,313.962c12.695-6.844,26.833-10.418,41.493-10.418c19.121,0,37.303,6.05,52.568,17.481
		c3.939,2.957,7.617,6.238,10.992,9.801c-0.408-5.695-0.69-11.839-0.773-18.306l15.673-0.188c0.219,17.669,2.1,33.05,3.605,42.757
		c12.371-6.405,26.06-9.749,40.186-9.749c3.312,0,6.635,0.199,9.926,0.575v-38.191c0-13.907,4.389-26.812,11.828-37.417
		c-13.416-15.799-20.71-35.568-20.71-56.623c0-6.813,0.773-13.479,2.288-19.978c-25.736,16.729-41.096,46.31-45.724,88.23
		l-15.579-1.714c5.318-48.169,24.691-82.985,56.361-101.856c-12.695-4.305-25.976-6.478-39.664-6.478
		c-68.273,0-123.819,55.546-123.819,123.819C16.198,301.819,16.647,307.932,17.546,313.962z"/>
</g>
<path style="fill:#898890;" d="M306.155,414.303V307.724c0-27.366-22.267-49.632-49.632-49.632s-49.632,22.267-49.632,49.632
	v106.579c0,27.366,22.267,49.632,49.632,49.632S306.155,441.667,306.155,414.303z"/>
<path style="fill:#57565C;" d="M495.802,295.708c0-68.273-55.546-123.819-123.819-123.819c-13.667,0-26.927,2.163-39.601,6.457
	c31.681,18.871,51.074,53.697,56.393,101.877l-15.579,1.714c-4.639-41.984-20.031-71.585-45.829-88.304
	c1.526,6.52,2.299,13.218,2.299,20.051c0,20.647-7.116,40.228-20.156,55.943c7.743,10.731,12.319,23.886,12.319,38.097v38.065
	c2.947-0.293,5.914-0.449,8.882-0.449c14.158,0,27.878,3.365,40.27,9.791c1.515-9.707,3.396-25.098,3.615-42.799l15.673,0.188
	c-0.084,6.426-0.366,12.528-0.763,18.202c3.344-3.521,6.99-6.771,10.888-9.697c15.266-11.431,33.447-17.481,52.568-17.481
	c14.66,0,28.797,3.574,41.493,10.418C495.353,307.932,495.802,301.819,495.802,295.708z"/>
<path d="M480.571,208.256c-4.064-56.155-28.93-108.323-70.128-147.011C368.749,22.09,314.27,0.527,257.044,0.527
	c-56.847,0-111.06,21.316-152.653,60.021c-40.913,38.074-65.947,89.476-70.651,144.917c-20.702,24.344-33.216,55.858-33.216,90.244
	c0,11.061,1.309,22.098,3.891,32.805l2.75,11.405l9.482-6.908c10.991-8.006,23.771-12.655,37.23-13.603
	C78.533,372.142,123.499,413.901,178,434.445l5.529-14.666c-48.052-18.113-88.125-53.965-111.704-99.43
	c26.256,4.651,47.996,23.424,56.102,49.635l3.181,10.286l8.811-6.188c12.174-8.551,26.481-13.071,41.372-13.071
	c3.325,0,6.653,0.241,9.926,0.692v52.598c0,21.319,10.271,40.283,26.122,52.209v29.815h-11.494v15.673h27.167v-36.787
	c7.301,2.827,15.223,4.396,23.51,4.396c8.287,0,16.209-1.567,23.51-4.396v21.114v15.673h26.122v-15.673h-10.449v-29.815
	c15.851-11.926,26.122-30.89,26.122-52.209v-52.738c2.931-0.359,5.912-0.552,8.882-0.552c14.892,0,29.197,4.519,41.372,13.071
	l8.811,6.188l3.181-10.286c0.064-0.208,0.139-0.411,0.205-0.618l0.051,0.011c0.015-0.066,0.051-0.231,0.106-0.485
	c8.612-26.386,31.119-45.022,58.02-48.91c-23.727,45.987-64.251,82.123-112.901,100.173l5.451,14.695
	c54.953-20.388,100.278-62.226,125.129-115.269c12.719,1.252,24.776,5.822,35.219,13.429l9.482,6.908l2.75-11.405
	c2.582-10.707,3.891-21.745,3.891-32.805C511.475,262.621,499.889,232.195,480.571,208.256z M115.069,72.02
	c38.683-35.996,89.103-55.821,141.975-55.821c53.224,0,103.892,20.055,142.669,56.47c33.462,31.423,55.336,72.402,62.864,117.058
	c-24.392-20.881-56.044-33.514-90.595-33.514c-21.821,0-42.733,4.909-62.152,14.591l-7.039,3.509l3.535,7.027
	c5.087,10.111,7.666,20.993,7.666,32.344c0,6.675-0.923,13.209-2.672,19.476l-44.871-44.577v54.589
	c-3.237-0.495-6.552-0.753-9.926-0.753c-3.374,0-6.689,0.257-9.926,0.753v-54.765l-45.603,45.906
	c-1.955-6.598-2.984-13.522-2.984-20.628c0-11.35,2.58-22.232,7.666-32.344l3.535-7.027l-7.039-3.509
	c-19.419-9.682-40.332-14.591-62.152-14.591c-33.406,0-64.103,11.808-88.147,31.464C59.776,143.498,81.766,103.014,115.069,72.02z
	 M282.122,247.65v-21.405l22.731,22.583c-1.784,3.185-3.814,6.242-6.088,9.15C293.798,253.753,288.199,250.25,282.122,247.65z
	 M213.65,258.524c-2.214-2.771-4.204-5.682-5.965-8.711l23.238-23.391v21.228C224.586,250.361,218.772,254.054,213.65,258.524z
	 M181.29,345.34c-14.125,0-27.813,3.348-40.183,9.746c-1.512-9.707-3.385-25.085-3.608-42.759l-15.671,0.196
	c0.082,6.464,0.369,12.603,0.773,18.304c-3.379-3.562-7.052-6.851-10.989-9.801c-15.267-11.437-33.447-17.483-52.574-17.483
	c-14.655,0-28.799,3.575-41.497,10.421c-0.893-6.033-1.344-12.141-1.344-18.257c0-68.274,55.545-123.819,123.819-123.819
	c13.687,0,26.968,2.173,39.659,6.478c-31.662,18.873-51.034,53.689-56.358,101.853l15.579,1.721
	c4.634-41.927,19.994-71.503,45.724-88.229c-1.516,6.491-2.286,13.162-2.286,19.974c0,21.057,7.299,40.829,20.709,56.627
	c-7.442,10.606-11.827,23.503-11.827,37.413v38.187C187.929,345.54,184.607,345.34,181.29,345.34z M306.155,414.303
	c0,27.367-22.266,49.632-49.632,49.632s-49.632-22.266-49.632-49.632V307.724c0-27.367,22.266-49.632,49.632-49.632
	c27.367,0,49.632,22.266,49.632,49.632V414.303z M494.458,313.964c-12.698-6.845-26.841-10.421-41.497-10.421
	c-19.127,0-37.306,6.046-52.573,17.483c-3.897,2.919-7.536,6.17-10.887,9.69c0.401-5.671,0.684-11.773,0.766-18.195l-15.671-0.196
	c-0.224,17.7-2.102,33.101-3.615,42.805c-12.393-6.428-26.113-9.792-40.271-9.792c-2.962,0-5.938,0.153-8.882,0.448v-38.064
	c0-14.213-4.578-27.368-12.316-38.1c13.036-15.709,20.153-35.296,20.153-55.94c0-6.837-0.775-13.532-2.303-20.046
	c25.797,16.714,41.195,46.315,45.835,88.303l15.579-1.721c-5.326-48.181-24.71-83.004-56.391-101.873
	c12.673-4.291,25.933-6.458,39.597-6.458c68.274,0,123.819,55.545,123.819,123.819C495.802,301.825,495.352,307.931,494.458,313.964
	z"/>
<g>
	<path style="fill:#FFFFFF;" d="M141.543,105.771c25.015-25.015,56.679-40.961,91.57-46.111l-2.289-15.505
		c-38.245,5.646-72.949,23.12-100.367,50.537c-0.391,0.392-0.779,0.785-1.166,1.179l11.188,10.977
		C140.831,106.485,141.188,106.125,141.543,105.771z"/>
	<path style="fill:#FFFFFF;" d="M111.135,147.729c3.845-7.62,8.333-14.998,13.338-21.929l-12.706-9.176
		c-5.488,7.598-10.409,15.689-14.625,24.046L111.135,147.729z"/>
</g>
<path d="M232.3,294.33c-11.419,0-20.708,9.29-20.708,20.709c0,11.419,9.29,20.709,20.708,20.709c11.42,0,20.709-9.29,20.709-20.709
	C253.008,303.619,243.719,294.33,232.3,294.33z M232.3,320.073c-2.776,0-5.034-2.259-5.034-5.035s2.258-5.035,5.034-5.035
	c2.776,0,5.035,2.259,5.035,5.035S235.076,320.073,232.3,320.073z"/>
<path d="M261.08,315.038c0,11.419,9.29,20.709,20.709,20.709s20.708-9.29,20.708-20.709c0-11.419-9.29-20.709-20.708-20.709
	C270.37,294.33,261.08,303.619,261.08,315.038z M286.824,315.038c0,2.776-2.258,5.035-5.034,5.035c-2.776,0-5.035-2.259-5.035-5.035
	c0-2.776,2.259-5.035,5.035-5.035C284.566,310.003,286.824,312.261,286.824,315.038z"/>
<g>
</g>
<g>
</g>
<g>
</g>
<g>
</g>
<g>
</g>
<g>
</g>
<g>
</g>
<g>
</g>
<g>
</g>
<g>
</g>
<g>
</g>
<g>
</g>
<g>
</g>
<g>
</g>
<g>
</g>
</svg>
